<svg width="46" height="80" viewBox="0 0 46 80" fill="none" xmlns="http://www.w3.org/2000/svg">
<path d="M0 5.35693V74.6431C0 77.5967 2.40332 80 5.35742 80H40.5586C43.5127 80 45.916 77.5967 45.916 74.6431V5.35693C45.916 2.40332 43.5127 0 40.5586 0H5.35742C2.40332 0 0 2.40332 0 5.35693ZM43.916 63.606H2V11.085H43.916V63.606ZM40.5586 78H5.35742C3.50586 78 2 76.4941 2 74.6431V65.606H43.916V74.6431C43.916 76.4941 42.4102 78 40.5586 78ZM43.916 5.35693V9.08496H2V5.35693C2 3.50586 3.50586 2 5.35742 2H40.5586C42.4102 2 43.916 3.50586 43.916 5.35693Z" fill="#283A42" fill-opacity="0.8"/>
<path d="M22.958 67.8589C20.6885 67.8589 18.8418 69.7056 18.8418 71.9756C18.8418 74.2456 20.6885 76.0923 22.958 76.0923C25.2285 76.0923 27.0752 74.2456 27.0752 71.9756C27.0752 69.7056 25.2285 67.8589 22.958 67.8589ZM22.958 74.0923C21.791 74.0923 20.8418 73.1426 20.8418 71.9756C20.8418 70.8086 21.791 69.8589 22.958 69.8589C24.125 69.8589 25.0752 70.8086 25.0752 71.9756C25.0752 73.1426 24.125 74.0923 22.958 74.0923Z" fill="#283A42" fill-opacity="0.8"/>
<path d="M22.958 54.4272C32.2275 54.4272 39.7686 46.8862 39.7686 37.6167C39.7686 28.3472 32.2275 20.8062 22.958 20.8062C13.6885 20.8062 6.14746 28.3472 6.14746 37.6167C6.14746 46.8862 13.6885 54.4272 22.958 54.4272ZM13.9745 49.3644C14.0765 45.4799 16.6052 42.1375 20.3418 41.0034C20.7266 40.8862 21.0049 40.5488 21.0459 40.1479C21.0869 39.7471 20.8828 39.3608 20.5293 39.168C18.7549 38.2021 17.6533 36.3486 17.6533 34.3315C17.6533 31.2974 20.1221 28.8291 23.1562 28.8291C26.1904 28.8291 28.6592 31.2974 28.6592 34.3315C28.6592 36.4092 27.5039 38.2876 25.6445 39.2339C25.2852 39.417 25.0713 39.7979 25.1016 40.2002C25.1318 40.6025 25.4014 40.9473 25.7842 41.0742C29.3954 42.2703 31.8403 45.5836 31.9415 49.3643C29.4465 51.2769 26.3376 52.4272 22.958 52.4272C19.5784 52.4272 16.4696 51.2769 13.9745 49.3644ZM22.958 22.8062C31.125 22.8062 37.7686 29.4502 37.7686 37.6167C37.7686 41.5177 36.2413 45.0607 33.7675 47.7086C33.187 44.3899 31.1293 41.5145 28.1553 39.9233C29.7324 38.5215 30.6592 36.5068 30.6592 34.3315C30.6592 30.1948 27.293 26.8291 23.1562 26.8291C19.0195 26.8291 15.6533 30.1948 15.6533 34.3315C15.6533 36.4248 16.5234 38.3887 18.0059 39.7881C14.8918 41.3452 12.738 44.275 12.1454 47.7053C9.67352 45.0576 8.14746 41.5161 8.14746 37.6167C8.14746 29.4502 14.791 22.8062 22.958 22.8062Z" fill="#283A42" fill-opacity="0.8"/>
</svg>
