<svg width="80" height="80" viewBox="0 0 80 80" fill="none" xmlns="http://www.w3.org/2000/svg">
<path d="M0 62.1661C0 71.9991 8 79.9991 17.833 79.9991C27.667 79.9991 35.667 71.9991 35.667 62.1661C35.667 55.2201 31.6669 49.2044 25.8574 46.2612L29.3223 40.6837C29.6133 40.215 29.4697 39.5988 29 39.3068C28.5312 39.0157 27.915 39.1593 27.623 39.629L24.0035 45.4554C22.0773 44.7416 20.0045 44.3321 17.833 44.3321C8 44.3321 0 52.3321 0 62.1661ZM8.20337 74.7053C8.29865 70.5272 11.0129 66.9293 15.0283 65.7101C15.4141 65.5929 15.6924 65.256 15.7334 64.8546C15.7744 64.4542 15.5703 64.0675 15.2168 63.8751C13.3076 62.8341 12.1211 60.839 12.1211 58.6681C12.1211 55.4025 14.7783 52.7452 18.0439 52.7452C21.3105 52.7452 23.9678 55.4025 23.9678 58.6681C23.9678 60.9044 22.7246 62.9269 20.7246 63.9445C20.3643 64.128 20.1504 64.5089 20.1807 64.9113C20.2109 65.3136 20.4805 65.6583 20.8633 65.7853C24.7443 67.0709 27.369 70.6385 27.4637 74.7048C24.7917 76.7617 21.4578 77.9991 17.833 77.9991C14.2085 77.9991 10.875 76.7619 8.20337 74.7053ZM17.833 46.3321C26.5635 46.3321 33.667 53.4357 33.667 62.1661C33.667 66.3773 32.0035 70.1996 29.3127 73.0388C28.7231 69.4426 26.4829 66.3297 23.2549 64.6349C24.9609 63.1525 25.9678 60.9972 25.9678 58.6681C25.9678 54.2989 22.4131 50.7452 18.0439 50.7452C13.6748 50.7452 10.1211 54.2989 10.1211 58.6681C10.1211 60.9113 11.0664 63.0128 12.6738 64.4943C9.29474 66.1503 6.95276 69.3206 6.35162 73.0365C3.66235 70.1975 2 66.3761 2 62.1661C2 53.4357 9.10254 46.3321 17.833 46.3321Z" fill="#283A42" fill-opacity="0.8"/>
<path d="M62.167 44.3321C59.9955 44.3321 57.9227 44.7416 55.9965 45.4554L52.377 39.629C52.0859 39.1593 51.4688 39.0157 51 39.3068C50.5303 39.5988 50.3867 40.215 50.6777 40.6837L54.1426 46.2612C48.3331 49.2045 44.333 55.2201 44.333 62.1661C44.333 71.9991 52.333 79.9991 62.167 79.9991C72 79.9991 80 71.9991 80 62.1661C80 52.3321 72 44.3321 62.167 44.3321ZM52.5364 74.7049C52.6319 70.527 55.3471 66.9293 59.3623 65.7101C59.748 65.5929 60.0264 65.256 60.0674 64.8546C60.1084 64.4542 59.9043 64.0675 59.5508 63.8751C57.6406 62.8351 56.4541 60.84 56.4541 58.6681C56.4541 55.4025 59.1113 52.7452 62.3779 52.7452C65.6436 52.7452 68.3008 55.4025 68.3008 58.6681C68.3008 60.9044 67.0576 62.9269 65.0576 63.9445C64.6973 64.128 64.4834 64.5089 64.5137 64.9113C64.5439 65.3136 64.8135 65.6583 65.1963 65.7853C69.0774 67.071 71.7021 70.6389 71.7967 74.7053C69.1251 76.7618 65.7915 77.9991 62.167 77.9991C58.5422 77.9991 55.2083 76.7617 52.5364 74.7049ZM73.6459 73.0392C73.0563 69.4426 70.816 66.329 67.5879 64.6349C69.2949 63.1525 70.3008 60.9972 70.3008 58.6681C70.3008 54.2989 66.7471 50.7452 62.3779 50.7452C58.0088 50.7452 54.4541 54.2989 54.4541 58.6681C54.4541 60.9113 55.4004 63.0128 57.0068 64.4943C53.6279 66.1503 51.2859 69.3203 50.6847 73.0361C47.9954 70.1971 46.333 66.3759 46.333 62.1661C46.333 53.4357 53.4365 46.3321 62.167 46.3321C70.8975 46.3321 78 53.4357 78 62.1661C78 66.3774 76.3367 70.1999 73.6459 73.0392Z" fill="#283A42" fill-opacity="0.8"/>
<path d="M40 10.1777C34.998 10.1777 30.9287 14.2471 30.9287 19.249C30.9287 24.251 34.998 28.3203 40 28.3203C45.002 28.3203 49.0713 24.251 49.0713 19.249C49.0713 14.2471 45.002 10.1777 40 10.1777ZM40 26.3203C36.1006 26.3203 32.9287 23.1484 32.9287 19.249C32.9287 15.3496 36.1006 12.1777 40 12.1777C43.8994 12.1777 47.0713 15.3496 47.0713 19.249C47.0713 23.1484 43.8994 26.3203 40 26.3203Z" fill="#283A42" fill-opacity="0.8"/>
<path d="M58.3545 16.3077C58.6367 16.2784 58.8926 16.1299 59.0596 15.9005C59.2266 15.671 59.2871 15.3809 59.2276 15.1036C58.7295 12.7833 57.8203 10.5909 56.5254 8.58698C56.3711 8.34869 56.1241 8.18756 55.8438 8.14264C55.5645 8.09576 55.2784 8.17389 55.0576 8.35162C53.878 9.3028 52.1797 9.21295 51.1084 8.14069C50.0362 7.06744 49.9453 5.37018 50.8975 4.19147C51.0752 3.97174 51.1514 3.68561 51.1065 3.40533C51.0616 3.12506 50.9004 2.87799 50.6621 2.72369C48.6582 1.42877 46.4659 0.519592 44.1455 0.0215454C43.8692 -0.0360718 43.5782 0.022522 43.3487 0.189514C43.1192 0.356506 42.9707 0.612366 42.9414 0.894592C42.7823 2.4024 41.5186 3.53912 40 3.53912C38.4815 3.53912 37.2178 2.4024 37.0586 0.894592C37.0293 0.612366 36.8809 0.356506 36.6514 0.189514C36.4219 0.0234986 36.1319 -0.0350952 35.8545 0.0215454C33.5342 0.519592 31.3418 1.42877 29.3379 2.72369C29.0996 2.87799 28.9385 3.12506 28.8936 3.40533C28.8487 3.68561 28.9248 3.97174 29.1026 4.19147C30.0547 5.37018 29.9639 7.06744 28.8916 8.14069C27.8194 9.21295 26.1221 9.3028 24.9424 8.35162C24.7227 8.17389 24.4366 8.09576 24.1563 8.14264C23.876 8.18756 23.6289 8.34869 23.4746 8.58698C22.1797 10.5909 21.2705 12.7833 20.7725 15.1036C20.7129 15.3809 20.7735 15.671 20.9405 15.9005C21.1075 16.1299 21.3633 16.2784 21.6455 16.3077C23.1534 16.4669 24.2901 17.7305 24.2901 19.2491C24.2901 20.7676 23.1534 22.0313 21.6455 22.1905C21.3633 22.2198 21.1075 22.3682 20.9405 22.5977C20.7735 22.8272 20.7129 23.1172 20.7725 23.3946C21.2705 25.7149 22.1797 27.9073 23.4746 29.9112C23.6289 30.1495 23.876 30.3106 24.1563 30.3555C24.4366 30.4034 24.7227 30.3253 24.9424 30.1465C26.1221 29.1934 27.8194 29.2842 28.8916 30.3575C29.9639 31.4307 30.0547 33.128 29.1026 34.3067C28.9248 34.5264 28.8487 34.8126 28.8936 35.0928C28.9385 35.3731 29.0996 35.6202 29.3379 35.7745C31.3418 37.0694 33.5342 37.9786 35.8545 38.4766C36.1309 38.5342 36.4209 38.4766 36.6514 38.3087C36.8809 38.1417 37.0293 37.8858 37.0586 37.6036C37.2178 36.0958 38.4815 34.959 40 34.959C41.5186 34.959 42.7823 36.0958 42.9414 37.6036C42.9707 37.8858 43.1192 38.1417 43.3487 38.3087C43.5205 38.4337 43.7266 38.4991 43.9356 38.4991C44.0059 38.4991 44.0762 38.4913 44.1455 38.4766C46.4659 37.9786 48.6582 37.0694 50.6621 35.7745C50.9004 35.6202 51.0616 35.3731 51.1065 35.0928C51.1514 34.8126 51.0752 34.5264 50.8975 34.3067C49.9453 33.128 50.0362 31.4307 51.1084 30.3575C52.1797 29.2842 53.878 29.1934 55.0576 30.1465C55.2784 30.3253 55.5645 30.4034 55.8438 30.3555C56.1241 30.3106 56.3711 30.1495 56.5254 29.9112C57.8203 27.9073 58.7295 25.7149 59.2276 23.3946C59.2871 23.1172 59.2266 22.8272 59.0596 22.5977C58.8926 22.3682 58.6367 22.2198 58.3545 22.1905C56.8467 22.0313 55.71 20.7676 55.71 19.2491C55.71 17.7305 56.8467 16.4669 58.3545 16.3077ZM57.0381 23.9337C56.6504 25.3477 56.0879 26.7032 55.3584 27.9825C53.4942 27.0782 51.2188 27.42 49.6944 28.9434C48.1709 30.4678 47.8301 32.7452 48.7334 34.6075C47.4541 35.337 46.0987 35.8995 44.6846 36.2872C44.0088 34.3292 42.1573 32.959 40 32.959C37.8428 32.959 35.9912 34.3292 35.3155 36.2872C33.9014 35.8995 32.5459 35.337 31.2666 34.6075C32.17 32.7452 31.8291 30.4678 30.3057 28.9434C28.7813 27.419 26.5049 27.0792 24.6416 27.9825C23.9121 26.7032 23.3496 25.3477 22.9619 23.9337C24.92 23.2579 26.2901 21.4063 26.2901 19.2491C26.2901 17.0919 24.92 15.2403 22.9619 14.5645C23.3496 13.1505 23.9121 11.795 24.6416 10.5157C26.5039 11.418 28.7813 11.0772 30.3057 9.55475C31.8291 8.03033 32.17 5.75299 31.2666 3.89069C32.5459 3.16119 33.9014 2.59869 35.3155 2.211C35.9912 4.16901 37.8428 5.53912 40 5.53912C42.1573 5.53912 44.0088 4.16901 44.6846 2.211C46.0987 2.59869 47.4541 3.16119 48.7334 3.89069C47.8301 5.75299 48.1709 8.03033 49.6944 9.55475C51.2188 11.0792 53.4971 11.419 55.3584 10.5157C56.0879 11.795 56.6504 13.1505 57.0381 14.5645C55.0801 15.2403 53.71 17.0919 53.71 19.2491C53.71 21.4063 55.0801 23.2579 57.0381 23.9337Z" fill="#283A42" fill-opacity="0.8"/>
</svg>
