<svg width="70" height="80" viewBox="0 0 70 80" fill="none" xmlns="http://www.w3.org/2000/svg">
<path d="M0 67.0127V79C0 79.5527 0.447754 80 1 80H68.354C68.9062 80 69.354 79.5527 69.354 79V67.0127C69.354 56.1069 61.541 47.217 51.8254 46.8716L52.0396 46.4854C52.2715 46.0664 52.1748 45.543 51.8091 45.2354L47.1626 41.3242C46.9541 41.1475 46.6836 41.0664 46.4111 41.0947C46.1396 41.124 45.8926 41.2627 45.7261 41.4795L44.8032 42.6789V37.2578C44.8032 37.2438 44.7958 37.2321 44.7952 37.2182C45.2772 36.9194 45.7449 36.6019 46.1987 36.2635C46.9955 40.5251 50.6597 43.7578 55.0522 43.7578C60.0254 43.7578 64.0713 39.6162 64.0713 34.5264C64.0713 34.1943 63.9067 33.8838 63.6313 33.6982C63.356 33.5117 63.0063 33.4736 62.6987 33.5986C62.6772 33.6084 60.4824 34.4385 59.043 33.2471C57.8877 32.291 56.7891 29.7305 58.1177 22.9688C58.2617 22.2334 58.478 21.5137 58.707 20.751C58.9009 20.1064 59.1011 19.4385 59.2563 18.7539C59.8403 16.1797 60.4028 12.958 60.1445 8.5918C59.8511 3.61328 56.0522 0 51.1118 0C48.64 0 46.3499 1.08923 44.7408 2.98578C41.758 1.1496 38.2734 0.0722656 34.5371 0.0722656C30.7892 0.0722656 27.2945 1.15613 24.3057 3.00287C22.6968 1.09564 20.3997 0 17.9204 0C12.98 0 9.18115 3.61328 8.88721 8.5918C8.62891 12.96 9.19141 16.1807 9.77588 18.7549C9.93115 19.4395 10.1318 20.1074 10.3257 20.7529C10.5542 21.5146 10.7705 22.2344 10.9146 22.9688C12.2402 29.7178 11.1475 32.2793 9.99756 33.2402C8.55371 34.4463 6.35156 33.6055 6.3335 33.5986C6.02539 33.4736 5.67529 33.5117 5.40088 33.6982C5.12549 33.8838 4.96094 34.1943 4.96094 34.5264C4.96094 39.6162 9.00684 43.7578 13.98 43.7578C18.3822 43.7578 22.0519 40.5104 22.8378 36.2349C23.4512 36.6946 24.0869 37.1232 24.7515 37.5098V42.7518L23.7725 41.4795C23.606 41.2627 23.3589 41.124 23.0874 41.0947C22.8193 41.0674 22.5449 41.1484 22.3359 41.3242L17.6895 45.2354C17.3237 45.543 17.2271 46.0664 17.459 46.4854L17.6688 46.8637C7.88818 47.1277 0 56.0543 0 67.0127ZM51.2451 48.8389C60.1274 48.8389 67.354 56.9912 67.354 67.0127V78H54.4297V70.7979C54.4297 70.2451 53.9819 69.7979 53.4297 69.7979C52.8774 69.7979 52.4297 70.2451 52.4297 70.7979V78H35.627V58.394L41.395 63.2285C41.5767 63.3809 41.8047 63.4619 42.0376 63.4619C42.0981 63.4619 42.1592 63.4561 42.2202 63.4453C42.5137 63.3906 42.7676 63.208 42.9121 62.9473L50.7346 48.8389H51.2451ZM46.6738 43.5264L49.8911 46.2354L41.751 60.917L36.6094 56.6074L46.6738 43.5264ZM16.7812 20.1191C16.7812 19.2982 16.8544 18.496 16.9594 17.7037C17.5412 17.7604 18.4243 17.8213 19.5679 17.8213C23.6 17.8213 30.7485 17.0463 38.3551 12.6586C39.6037 14.4476 43.7163 19.3029 52.252 20.9401C51.8254 30.5081 44.055 38.165 34.5371 38.165C24.7466 38.165 16.7812 30.0693 16.7812 20.1191ZM52.2319 18.895C44.8803 17.3582 41.2033 13.1665 40.0684 11.6075C42.1531 10.2612 44.2541 8.633 46.3241 6.65961C49.6943 9.71198 51.9089 14.0386 52.2319 18.895ZM51.1118 2C55.022 2 57.915 4.75879 58.1484 8.70898C58.3916 12.8262 57.8589 15.874 57.3062 18.3115C57.166 18.9297 56.9839 19.5352 56.7915 20.1758C56.5586 20.9512 56.3179 21.7529 56.1548 22.584C54.9365 28.7861 55.479 32.8926 57.7676 34.7881C59.1436 35.9268 60.7915 35.9854 61.958 35.8242C61.3628 39.1943 58.4927 41.7578 55.0522 41.7578C51.2422 41.7578 48.1378 38.6118 48.0422 34.7096C51.8795 31.0506 54.293 25.8714 54.293 20.1191C54.293 13.5827 51.1801 7.78485 46.3947 4.12292C47.6147 2.7713 49.3012 2 51.1118 2ZM44.7633 5.39105C33.3524 16.1287 20.6451 15.9767 17.3366 15.7216C19.2761 7.89294 26.2413 2.07227 34.5371 2.07227C38.3453 2.07227 41.8687 3.30853 44.7633 5.39105ZM13.98 41.7578C10.5396 41.7578 7.66943 39.1943 7.07422 35.8242C8.24023 35.9854 9.88818 35.9287 11.2642 34.7881C13.5532 32.8926 14.0957 28.7871 12.8774 22.584C12.7139 21.7529 12.4736 20.9521 12.2412 20.1777C12.0483 19.5361 11.8662 18.9297 11.7261 18.3115C11.1729 15.875 10.6401 12.8281 10.8833 8.70898C11.1167 4.75879 14.0107 2 17.9204 2C19.7394 2 21.4329 2.77893 22.6538 4.14246C17.8831 7.80548 14.7812 13.5944 14.7812 20.1191C14.7812 25.8516 17.1776 31.0156 20.9918 34.6725C20.9153 38.592 17.8022 41.7578 13.98 41.7578ZM26.7515 38.5368C29.1424 39.5814 31.7731 40.165 34.5371 40.165C37.4906 40.165 40.2845 39.4855 42.8032 38.3016V45.2783L34.7495 55.7455L26.7515 45.3511V38.5368ZM22.8247 43.5264L32.8896 56.6074L27.7476 60.917L19.6074 46.2354L22.8247 43.5264ZM18.1094 48.8389H18.7639L26.5864 62.9473C26.731 63.208 26.9849 63.3906 27.2783 63.4453C27.3394 63.4561 27.4004 63.4619 27.4609 63.4619C27.6938 63.4619 27.9219 63.3809 28.103 63.2285L33.627 58.599V78H16.6445V70.7979C16.6445 70.2451 16.1968 69.7979 15.6445 69.7979C15.0923 69.7979 14.6445 70.2451 14.6445 70.7979V78H2V67.0127C2 56.9912 9.22656 48.8389 18.1094 48.8389Z" fill="#283A42" fill-opacity="0.8"/>
</svg>
