<?xml version="1.0" encoding="UTF-8"?>
<svg width="1529px" height="420px" viewBox="0 0 1529 420" version="1.1" xmlns="http://www.w3.org/2000/svg" xmlns:xlink="http://www.w3.org/1999/xlink">
    <!-- Generator: Sketch 46.2 (44496) - http://www.bohemiancoding.com/sketch -->
    <title>Website logo dark grey</title>
    <desc>Created with Sketch.</desc>
    <defs>
        <polygon id="path-1" points="0 0.280142132 0 419.28934 418.527051 419.28934 418.527051 0.280142132"/>
        <polygon id="path-3" points="0 419.72 418.527193 419.72 418.527193 0.710659898 0 0.710659898"/>
        <polygon id="path-5" points="510.854268 256.095533 1021.70847 256.095533 1021.70847 0 510.854268 0 7.09842154e-05 0 7.09842154e-05 256.095533"/>
    </defs>
    <g id="Page-1" stroke="none" stroke-width="1" fill="none" fill-rule="evenodd">
        <g id="Website-logo">
            <g id="Website-logo-dark-grey">
                <g id="Page-1">
                    <g id="Group-3" transform="translate(0.000000, 0.430660)">
                        <mask id="mask-2" fill="white">
                            <use xlink:href="#path-1"/>
                        </mask>
                        <g id="Clip-2"/>
                        <path d="M418.527051,209.784812 C418.527051,325.490193 324.835695,419.289482 209.263455,419.289482 C93.6890846,419.289482 -0.000141968431,325.490193 -0.000141968431,209.784812 C-0.000141968431,94.0787208 93.6890846,0.280142132 209.263455,0.280142132 C324.835695,0.280142132 418.527051,94.0787208 418.527051,209.784812" id="Fill-1" fill="#69C2EB" mask="url(#mask-2)"/>
                    </g>
                    <path d="M395.275604,209.051269 C395.275604,311.259086 312.514397,394.114213 210.426318,394.114213 C108.3354,394.114213 25.5770325,311.259086 25.5770325,209.051269 C25.5770325,106.844162 108.3354,23.9890355 210.426318,23.9890355 C312.514397,23.9890355 395.275604,106.844162 395.275604,209.051269 Z" id="Stroke-4" stroke="#FFFFFF" stroke-width="9.91558111"/>
                    <path d="M299.229204,310.312274 L119.295576,310.312274 C113.7872,310.312274 109.281832,305.800294 109.281832,300.286284 L109.281832,120.14466 C109.281832,114.629939 113.7872,110.11867 119.295576,110.11867 L299.229204,110.11867 C304.738289,110.11867 309.245077,114.629939 309.245077,120.14466 L309.245077,300.286284 C309.245077,305.800294 304.738289,310.312274 299.229204,310.312274" id="Fill-6" fill="#FFFFFF"/>
                    <mask id="mask-4" fill="white">
                        <use xlink:href="#path-3"/>
                    </mask>
                    <g id="Clip-9"/>
                    <polygon id="Fill-8" fill="#69C2EB" mask="url(#mask-4)" points="90.6809155 214.870863 346.447691 214.870863 346.447691 205.559797 90.6809155 205.559797"/>
                    <polygon id="Fill-10" fill="#69C2EB" mask="url(#mask-4)" points="211.589039 321.951675 316.220483 321.951675 316.220483 212.543452 211.589039 212.543452"/>
                    <path d="M299.944583,196.248305 L223.214195,196.248305 L223.214195,119.430234 L293.901697,119.430234 C297.237955,119.430234 299.944583,122.138558 299.944583,125.479371 L299.944583,196.248305 Z" id="Fill-11" fill="#69C2EB" mask="url(#mask-4)"/>
                    <polygon id="Fill-12" fill="#69C2EB" mask="url(#mask-4)" points="204.612711 352.212995 213.913773 352.212995 213.913773 103.135228 204.612711 103.135228"/>
                </g>
                <g id="Page-1" transform="translate(506.827298, 81.725888)">
                    <mask id="mask-6" fill="white">
                        <use xlink:href="#path-5"/>
                    </mask>
                    <g id="Clip-2"/>
                    <path d="M7.09842154e-05,256.095533 L43.1868676,256.095533 L43.1868676,164.078579 L108.152331,164.078579 C159.460432,164.078579 188.620748,128.602437 188.620748,86.8433503 C188.620748,45.084264 159.82955,9.60812183 108.152331,9.60812183 L7.09842154e-05,9.60812183 L7.09842154e-05,256.095533 Z M144.326597,86.8433503 C144.326597,110.494112 126.608227,126.014924 102.246445,126.014924 L43.1868676,126.014924 L43.1868676,47.6717766 L102.246445,47.6717766 C126.608227,47.6717766 144.326597,63.1925888 144.326597,86.8433503 L144.326597,86.8433503 Z M370.961451,256.095533 L418.208545,256.095533 L321.49894,9.60812183 L267.607724,9.60812183 L170.897409,256.095533 L218.145213,256.095533 L236.231991,208.793299 L352.873963,208.793299 L370.961451,256.095533 Z M294.553332,46.1936041 L340.693072,170.730355 L248.412882,170.730355 L294.553332,46.1936041 Z M585.783112,256.095533 L635.614741,256.095533 L575.44781,159.274518 C604.977954,154.470457 633.769151,130.819695 633.769151,86.8433503 C633.769151,41.3895431 602.0243,9.60812183 553.300735,9.60812183 L445.147765,9.60812183 L445.147765,256.095533 L488.335271,256.095533 L488.335271,164.078579 L531.15366,164.078579 L585.783112,256.095533 Z M589.475001,86.8433503 C589.475001,110.494112 571.757341,126.014924 547.394848,126.014924 L488.335271,126.014924 L488.335271,47.6717766 L547.394848,47.6717766 C571.757341,47.6717766 589.475001,63.1925888 589.475001,86.8433503 L589.475001,86.8433503 Z M695.037757,48.0406091 C708.326002,48.0406091 719.030422,37.3238579 719.030422,24.0210152 C719.030422,10.7167513 708.326002,0 695.037757,0 C682.11792,0 671.045092,10.7167513 671.045092,24.0210152 C671.045092,37.3238579 682.11792,48.0406091 695.037757,48.0406091 L695.037757,48.0406091 Z M675.843625,256.095533 L714.601717,256.095533 L714.601717,77.6047716 L675.843625,77.6047716 L675.843625,256.095533 Z M978.52103,256.095533 L1021.70854,256.095533 L1021.70854,9.60812183 L960.803369,9.60812183 L893.623198,175.534416 L826.812145,9.60812183 L765.906978,9.60812183 L765.906978,256.095533 L809.094485,256.095533 L809.094485,69.4741117 L884.39525,256.095533 L902.851146,256.095533 L978.52103,69.4741117 L978.52103,256.095533 Z" id="Fill-1" fill="#3A4B52" mask="url(#mask-6)"/>
                </g>
            </g>
        </g>
    </g>
<script xmlns=""/></svg>